<svg xmlns="http://www.w3.org/2000/svg" xmlns:xlink="http://www.w3.org/1999/xlink" width="100" height="100" viewBox="0 0 100 100"><g transform="translate(50 50) scale(1 1) rotate(0) translate(-50 -50)" style="fill:#FFFFFF"><svg fill="#FFFFFF" xmlns="http://www.w3.org/2000/svg" xmlns:xlink="http://www.w3.org/1999/xlink" version="1.1" x="0px" y="0px" viewBox="0 0 91 91" enable-background="new 0 0 91 91" xml:space="preserve"><g><path d="M16.921,67.187c0,13.102,12.455,23.76,27.762,23.76h0.717c15.311,0,27.766-10.658,27.766-23.76V54.733   c0-5.65-2.326-10.838-6.188-14.922c0.049-0.195,0.082-0.398,0.082-0.611V19.458c0-10.309-9.756-18.697-21.746-18.697h-0.543   c-11.99,0-21.748,8.389-21.748,18.697V39.2c0,0.213,0.035,0.418,0.084,0.615c-3.859,4.082-6.186,9.27-6.186,14.918V67.187z    M44.771,5.786h0.543c9.221,0,16.721,6.133,16.721,13.672v16.297c-4.643-2.986-10.389-4.781-16.635-4.781h-0.717   c-6.242,0-11.992,1.795-16.635,4.785V19.458C28.048,11.919,35.55,5.786,44.771,5.786z M21.946,54.733   c0-10.33,10.201-18.734,22.736-18.734h0.717c12.539,0,22.74,8.404,22.74,18.734v12.453c0,10.33-10.201,18.734-22.74,18.734h-0.717   c-12.535,0-22.736-8.404-22.736-18.734V54.733z"></path><path d="M45.042,72.517c1.389,0,2.514-1.127,2.514-2.514V53.724c0-1.389-1.125-2.514-2.514-2.514c-1.387,0-2.512,1.125-2.512,2.514   v16.279C42.53,71.39,43.655,72.517,45.042,72.517z"></path></g></svg></g></svg>
